***********************************************************

Les Miserables 2012  BluRay 1080p DTS X264 - alrmothe

***********************************************************

TiTLE:Les Miserables 
YEAR: 2012
GENRE :Drama  Musical  Romance  
imdb URL :http://www.imdb.com/title/tt1707386/
Format: Matroska
Format version: Version 4 / Version 2
File size:  10.9 GiB
Duration:  2h 37mn
Overall bit rate: 9913 Kbps
Sub:English,Arabic,French,Italian 

***********************************************************

Video
Format : AVC 
Format/Info : Advanced Video Codec 
Format profile : High@L4.1 
Format settings, CABAC : Yes 
Format settings, ReFrames : 4 frames  
Codec ID : V_MPEG4/ISO/AVC  
Bit rate : 8403 Kbps 
Width : 1 920 pixels 
Height : 1 040 pixels 
Display aspect ratio : 16:9 
Frame rate : 23.976 fps 
Color space : YUV 
Chroma subsampling : 4:2:0 
Bit depth : 8 bits 
Scan type : Progressive 
Bits/(Pixel*Frame) : 0.176 
Stream size: 9.05 GiB (83%)
Title: Les Miserables 2012  BluRay 1080p DTS X264 - alrmothe


Audio #1
Format : DTS 
Format/Info : Digital Theater Systems 
Codec ID : A_DTS  
Bit rate mode : Constant 
Bit rate : 1509 Kbps 
Channel(s) : 6 channels 
Channel positions : Front: L C R, Side: L R, LFE 
Sampling rate : 48.0 KHz 
Bit depth : 24 bits 
Stream size : 1.66 GiB (15%) 
Title :DTS 1509 
Language : English




***********************************************************

Screenshots 
http://img13.imageshack.us/img13/640/vlcsnap2013030914h09m41.png 
http://img715.imageshack.us/img715/4436/vlcsnap2013030914h08m41.png 
http://img585.imageshack.us/img585/1228/vlcsnap2013030914h18m54.png 
http://img13.imageshack.us/img13/9853/vlcsnap2013030914h13m25.png 
http://img585.imageshack.us/img585/1228/vlcsnap2013030914h18m54.png 
http://img15.imageshack.us/img15/3002/vlcsnap2013030914h23m32.png 
http://img6.imageshack.us/img6/4160/lesmiserables2012bluray.jpg